<?xml version="1.0" standalone="no"?>
<!DOCTYPE svg PUBLIC "-//W3C//DTD SVG 20010904//EN"
 "http://www.w3.org/TR/2001/REC-SVG-20010904/DTD/svg10.dtd">
<svg version="1.0" xmlns="http://www.w3.org/2000/svg"
 width="60.000000pt" height="60.000000pt" viewBox="0 0 60.000000 60.000000"
 preserveAspectRatio="xMidYMid meet">

<g transform="translate(0.000000,60.000000) scale(0.100000,-0.100000)"
fill="#000000" stroke="none">
<path d="M365 427 c-16 -30 -32 -54 -36 -51 -4 2 -13 -3 -20 -12 -11 -14 -14
-13 -26 8 -13 23 -13 23 -7 -4 3 -16 4 -28 1 -28 -3 0 -37 14 -75 30 -86 37
-98 38 -50 5 20 -14 42 -25 48 -25 6 0 8 -4 5 -10 -4 -6 1 -7 11 -3 11 4 15 2
11 -4 -4 -6 1 -17 11 -24 15 -13 16 -12 3 4 -14 18 -2 24 15 7 15 -15 40 -3
53 27 6 14 14 23 17 20 3 -3 -1 -15 -8 -26 -12 -20 -10 -24 12 -42 16 -14 19
-19 8 -15 -18 5 -58 -28 -58 -48 0 -5 -3 -7 -6 -4 -3 4 -1 15 4 25 6 11 7 25
2 33 -7 11 -15 10 -46 -4 -29 -12 -32 -15 -11 -11 33 7 34 -4 6 -65 -12 -25
-25 -56 -30 -69 -17 -43 17 -5 40 45 12 25 26 42 31 39 6 -4 13 1 16 9 8 21
21 20 27 -1 4 -14 5 -13 6 4 l1 23 58 -26 c31 -14 68 -30 81 -35 41 -16 7 15
-39 36 -22 10 -37 21 -35 26 3 4 0 11 -6 15 -8 5 -9 3 -4 -6 5 -8 3 -11 -5 -8
-26 8 -21 44 8 55 27 11 27 11 -5 6 -18 -3 -33 -3 -33 0 0 3 14 35 31 72 38
82 33 108 -6 32z"/>
<path d="M335 130 c3 -5 8 -10 11 -10 2 0 4 5 4 10 0 6 -5 10 -11 10 -5 0 -7
-4 -4 -10z"/>
</g>
</svg>
